<svg id="SvgjsSvg1001" width="288" height="288" xmlns="http://www.w3.org/2000/svg" version="1.1" xmlns:xlink="http://www.w3.org/1999/xlink" xmlns:svgjs="http://svgjs.com/svgjs"><defs id="SvgjsDefs1002"></defs><g id="SvgjsG1008" transform="matrix(0.9167,0,0,0.9167,11.995199989341444,11.995200000000011)"><svg xmlns="http://www.w3.org/2000/svg" viewBox="0 0 128 96" width="288" height="288"><path d="M60 16v80c-4-4-12-12-30-12a79.75 79.75 0 0 0-24.734 3.795A4 4 0 0 1 0 84V12a4 4 0 0 1 1.287-2.94C6.885 3.896 19.228 0 30 0c14.744 0 23.314 8.016 27.92 12.321l.793.74A4 4 0 0 1 60 16zm8 0v80c4-4 12-12 30-12a79.75 79.75 0 0 1 24.734 3.795A3.998 3.998 0 0 0 128 84V12a4 4 0 0 0-1.287-2.94C121.115 3.897 108.773 0 98 0 83.258 0 74.685 8.016 70.08 12.321c-.277.26-.539.506-.793.74A4 4 0 0 0 68 16z" data-name="Layer 2" fill="#ff8066" class="color000 svgShape"></path></svg></g></svg>